<svg width="102" height="102" viewBox="0 0 102 102" fill="none" xmlns="http://www.w3.org/2000/svg" xmlns:xlink="http://www.w3.org/1999/xlink"><path d="M21.237 2.197 L 20.740 2.694 20.740 6.099 L 20.740 9.504 13.133 9.559 C 4.439 9.622,4.477 9.617,3.048 11.046 C 1.569 12.524,1.691 9.075,1.741 48.116 L 1.785 82.705 2.160 83.407 C 2.692 84.400,3.964 85.462,4.986 85.766 C 5.725 85.985,8.639 86.020,26.309 86.020 L 46.776 86.020 47.273 85.523 C 47.941 84.855,47.941 84.125,47.273 83.457 L 46.776 82.960 26.440 82.960 C 4.547 82.960,5.403 82.993,4.935 82.119 C 4.817 81.898,4.760 70.779,4.760 47.768 L 4.760 13.744 5.257 13.247 L 5.754 12.750 13.232 12.750 L 20.711 12.750 20.768 14.701 C 20.833 16.914,21.010 17.267,22.145 17.451 C 22.678 17.538,22.836 17.480,23.282 17.034 C 23.797 16.519,23.800 16.505,23.800 14.633 L 23.800 12.750 42.141 12.750 L 60.482 12.750 60.547 14.637 C 60.611 16.518,60.613 16.525,61.163 17.017 C 61.779 17.567,62.183 17.626,62.875 17.268 C 63.570 16.909,63.750 16.327,63.750 14.442 L 63.750 12.750 71.243 12.750 L 78.736 12.750 79.233 13.247 L 79.730 13.744 79.730 18.007 L 79.730 22.270 46.265 22.270 C 22.212 22.270,12.649 22.323,12.260 22.458 C 11.249 22.811,10.919 24.111,11.630 24.938 L 12.041 25.415 45.885 25.459 L 79.730 25.502 79.730 35.200 C 79.730 45.839,79.711 45.640,80.742 46.067 C 81.160 46.240,81.361 46.239,81.783 46.065 C 82.860 45.618,82.801 46.654,82.751 29.052 L 82.705 13.005 82.315 12.275 C 81.756 11.227,80.756 10.297,79.797 9.931 C 79.039 9.642,78.290 9.609,71.367 9.559 L 63.769 9.504 63.717 6.012 L 63.665 2.520 63.188 2.110 C 62.677 1.671,61.916 1.578,61.344 1.884 C 60.661 2.249,60.520 3.018,60.520 6.370 L 60.520 9.520 42.160 9.520 L 23.800 9.520 23.800 6.027 C 23.800 2.546,23.799 2.533,23.383 2.117 C 22.780 1.514,21.886 1.547,21.237 2.197 M15.300 33.609 C 15.160 33.660,14.913 33.864,14.751 34.063 C 14.477 34.401,14.457 35.720,14.454 54.195 L 14.450 73.965 14.867 74.383 L 15.285 74.800 29.445 74.795 C 40.308 74.790,43.668 74.741,43.875 74.582 C 44.668 73.973,44.742 72.936,44.043 72.237 L 43.546 71.740 39.280 71.740 L 35.015 71.740 35.060 66.938 L 35.105 62.135 41.027 62.050 L 46.950 61.965 47.377 61.468 C 47.720 61.069,47.786 60.852,47.708 60.373 C 47.655 60.044,47.453 59.618,47.261 59.425 C 46.923 59.087,46.708 59.073,40.963 59.026 L 35.015 58.977 35.060 54.181 L 35.105 49.385 42.245 49.385 L 49.385 49.385 49.470 52.143 C 49.549 54.720,49.580 54.927,49.938 55.285 C 50.465 55.810,51.535 55.810,52.062 55.285 C 52.420 54.927,52.451 54.720,52.530 52.143 L 52.615 49.385 57.008 49.300 C 61.372 49.216,61.403 49.212,61.725 48.814 C 62.220 48.202,62.148 47.332,61.553 46.737 L 61.056 46.240 56.790 46.240 L 52.525 46.240 52.570 41.438 L 52.615 36.635 59.755 36.635 L 66.895 36.635 66.980 40.178 L 67.065 43.720 67.542 44.130 C 68.298 44.780,69.470 44.586,69.851 43.748 C 69.974 43.479,70.040 41.790,70.040 38.909 L 70.040 34.484 69.543 33.987 L 69.046 33.490 42.301 33.503 C 27.591 33.511,15.440 33.558,15.300 33.609 M31.920 41.438 L 31.965 46.240 24.738 46.240 L 17.510 46.240 17.510 41.393 L 17.510 36.546 24.693 36.591 L 31.875 36.635 31.920 41.438 M49.430 41.438 L 49.475 46.240 42.248 46.240 L 35.020 46.240 35.020 41.508 C 35.020 38.906,35.072 36.725,35.135 36.661 C 35.199 36.598,38.431 36.566,42.318 36.591 L 49.385 36.635 49.430 41.438 M31.920 54.188 L 31.965 58.990 24.738 58.990 L 17.510 58.990 17.510 54.143 L 17.510 49.296 24.693 49.341 L 31.875 49.385 31.920 54.188 M72.505 49.568 C 70.084 49.907,69.192 50.092,67.490 50.606 C 58.459 53.334,51.738 60.847,49.874 70.295 C 49.509 72.149,49.453 77.106,49.775 79.050 C 51.471 89.270,59.588 97.729,69.700 99.811 C 72.138 100.313,75.967 100.417,78.563 100.052 C 82.237 99.536,85.862 98.148,89.080 96.025 C 91.177 94.642,94.581 91.260,95.948 89.202 C 97.850 86.337,99.261 82.930,99.906 79.645 C 100.338 77.449,100.332 72.448,99.895 70.125 C 99.168 66.256,97.365 62.327,94.852 59.137 C 91.140 54.424,85.408 50.953,79.560 49.875 C 78.291 49.641,73.477 49.431,72.505 49.568 M80.128 53.194 C 85.884 54.645,90.408 57.837,93.630 62.722 C 97.143 68.050,98.160 74.880,96.364 81.090 C 94.210 88.538,88.504 94.242,81.071 96.375 C 78.597 97.085,76.683 97.302,73.865 97.191 C 68.207 96.969,63.036 94.665,59.037 90.587 C 56.031 87.522,54.253 84.333,53.176 80.077 C 52.679 78.111,52.636 77.720,52.626 75.055 C 52.614 71.916,52.923 69.973,53.840 67.419 C 56.332 60.480,62.254 55.072,69.321 53.279 C 71.802 52.650,72.815 52.542,75.565 52.617 C 77.679 52.674,78.460 52.773,80.128 53.194 M73.910 59.486 L 73.355 59.982 73.302 67.263 C 73.245 75.054,73.287 75.541,74.062 76.151 C 74.487 76.486,74.718 76.500,79.625 76.499 C 84.377 76.499,84.784 76.475,85.281 76.172 C 86.295 75.553,86.184 74.058,85.086 73.537 C 84.624 73.318,83.805 73.270,80.512 73.270 L 76.500 73.270 76.500 66.802 C 76.500 59.785,76.478 59.607,75.570 59.193 C 74.884 58.881,74.514 58.946,73.910 59.486 M31.920 66.938 L 31.965 71.740 24.738 71.740 L 17.510 71.740 17.510 66.893 L 17.510 62.046 24.693 62.091 L 31.875 62.135 31.920 66.938 " stroke="none" fill="black" fill-rule="evenodd"></path></svg>