<svg width="72" height="72" viewBox="0 0 72 72" fill="none" xmlns="http://www.w3.org/2000/svg" xmlns:xlink="http://www.w3.org/1999/xlink"><path d="M33.360 0.071 C 33.129 0.098,32.441 0.175,31.831 0.241 C 28.151 0.642,24.040 1.833,20.460 3.535 C 10.272 8.378,2.792 18.041,0.672 29.100 C 0.227 31.425,0.113 32.471,0.036 34.933 C -0.516 52.532,11.941 68.086,29.186 71.332 C 32.036 71.868,32.826 71.938,36.000 71.937 C 39.192 71.937,40.114 71.855,42.900 71.321 C 57.212 68.582,68.637 57.128,71.331 42.818 C 71.868 39.965,71.938 39.174,71.938 36.000 C 71.938 32.919,71.869 32.091,71.390 29.460 C 68.967 16.134,59.030 5.171,45.960 1.404 C 44.429 0.963,42.101 0.477,40.380 0.241 C 39.411 0.108,34.137 -0.020,33.360 0.071 M49.771 13.950 L 49.740 18.300 46.380 18.363 C 43.306 18.421,42.966 18.449,42.383 18.685 C 41.498 19.043,41.027 19.433,40.657 20.116 C 40.167 21.021,40.080 21.835,40.080 25.521 L 40.080 28.917 44.730 28.949 L 49.380 28.980 49.380 33.600 L 49.380 38.220 44.760 38.280 L 40.140 38.340 40.109 50.370 L 40.079 62.400 35.219 62.400 L 30.360 62.400 30.360 50.342 L 30.360 38.283 26.310 38.252 L 22.260 38.220 22.260 33.600 L 22.260 28.980 26.310 28.948 L 30.360 28.917 30.361 25.048 C 30.362 22.921,30.417 20.694,30.484 20.100 C 30.832 17.028,32.094 14.274,33.923 12.598 C 35.668 10.999,37.613 10.128,40.440 9.680 C 40.605 9.654,42.779 9.625,45.271 9.616 L 49.803 9.600 49.771 13.950 " stroke="none" fill="black" fill-rule="evenodd"></path></svg>