<svg width="72" height="72" viewBox="0 0 72 72" fill="none" xmlns="http://www.w3.org/2000/svg" xmlns:xlink="http://www.w3.org/1999/xlink"><path d="M15.780 0.137 C 14.586 0.289,12.592 0.812,11.400 1.287 C 5.282 3.724,0.927 9.390,0.124 15.957 C -0.047 17.355,-0.047 54.645,0.124 56.043 C 1.137 64.324,7.676 70.863,15.957 71.876 C 17.351 72.046,54.643 72.047,56.043 71.876 C 62.628 71.075,68.321 66.679,70.727 60.540 C 71.247 59.213,71.712 57.395,71.876 56.043 C 72.047 54.643,72.046 17.351,71.876 15.957 C 70.863 7.676,64.324 1.137,56.043 0.124 C 54.775 -0.031,17.007 -0.019,15.780 0.137 M56.274 6.245 C 60.563 7.104,63.999 10.118,65.384 14.233 C 66.012 16.100,65.999 15.637,65.999 36.000 C 65.999 52.649,65.977 55.029,65.811 55.980 C 65.146 59.786,62.815 62.959,59.430 64.665 C 58.239 65.266,57.579 65.494,56.274 65.755 C 55.077 65.995,54.695 66.000,36.000 66.000 C 17.305 66.000,16.923 65.995,15.726 65.755 C 13.294 65.268,11.252 64.183,9.535 62.465 C 7.699 60.630,6.622 58.471,6.125 55.628 C 5.952 54.643,5.952 17.357,6.125 16.372 C 6.379 14.919,6.633 14.072,7.135 13.005 C 8.365 10.391,10.152 8.544,12.660 7.294 C 13.835 6.708,14.419 6.505,15.660 6.247 C 16.687 6.034,17.684 6.022,35.897 6.012 C 54.720 6.000,55.075 6.004,56.274 6.245 M54.477 12.156 C 53.313 12.419,52.106 13.312,51.602 14.284 C 50.622 16.172,50.908 18.175,52.366 19.634 C 53.320 20.587,54.138 20.926,55.500 20.931 C 57.107 20.937,58.315 20.299,59.205 18.974 C 59.752 18.159,59.927 17.562,59.927 16.500 C 59.927 15.421,59.749 14.830,59.165 13.961 C 58.163 12.472,56.283 11.748,54.477 12.156 M33.825 18.136 C 33.322 18.194,32.296 18.397,31.545 18.588 C 25.209 20.200,20.205 25.207,18.584 31.560 C 16.136 41.150,21.965 50.967,31.560 53.416 C 37.722 54.989,44.225 53.192,48.717 48.675 C 52.478 44.893,54.385 39.677,53.909 34.470 C 52.978 24.295,43.975 16.972,33.825 18.136 M38.274 24.245 C 42.280 25.048,45.480 27.665,47.074 31.440 C 47.693 32.906,47.940 34.208,47.940 36.000 C 47.940 37.792,47.693 39.094,47.074 40.560 C 45.480 44.335,42.280 46.952,38.274 47.755 C 32.731 48.867,27.166 45.867,24.926 40.560 C 24.307 39.094,24.060 37.792,24.060 36.000 C 24.060 34.208,24.307 32.906,24.926 31.440 C 26.816 26.962,31.104 24.059,35.897 24.012 C 36.626 24.004,37.505 24.090,38.274 24.245 " stroke="none" fill="black" fill-rule="evenodd"></path></svg>