<svg width="73" height="73" viewBox="0 0 73 73" fill="none" xmlns="http://www.w3.org/2000/svg" xmlns:xlink="http://www.w3.org/1999/xlink"><path d="M33.093 0.131 C 27.901 0.644,22.178 2.516,17.885 5.106 C 8.679 10.660,2.532 19.499,0.618 29.933 C -0.221 34.511,-0.221 38.489,0.618 43.067 C 3.335 57.879,14.900 69.557,29.592 72.322 C 32.481 72.866,33.282 72.937,36.500 72.937 C 39.736 72.936,40.671 72.853,43.496 72.312 C 58.007 69.535,69.591 57.921,72.321 43.413 C 72.866 40.521,72.937 39.718,72.937 36.500 C 72.937 33.282,72.866 32.479,72.321 29.587 C 69.805 16.221,59.713 5.172,46.596 1.425 C 45.025 0.976,42.635 0.477,40.941 0.245 C 39.622 0.064,34.521 -0.010,33.093 0.131 M52.524 22.260 C 53.028 22.568,53.302 23.112,53.377 23.958 C 53.523 25.594,52.298 33.885,49.762 48.423 C 49.061 52.446,48.711 53.500,47.811 54.313 C 47.315 54.761,47.145 54.801,45.929 54.755 C 45.291 54.731,43.885 54.064,42.656 53.202 C 42.114 52.822,40.494 51.719,39.055 50.752 C 31.699 45.807,31.579 45.719,31.197 44.992 C 30.925 44.473,30.982 43.777,31.341 43.239 C 31.808 42.540,32.071 42.279,36.318 38.282 C 42.145 32.797,43.678 31.242,43.678 30.815 C 43.678 30.174,43.256 30.009,42.547 30.374 C 41.865 30.724,38.234 33.119,29.228 39.159 C 26.394 41.060,25.477 41.548,24.339 41.759 C 23.019 42.005,21.133 41.623,17.029 40.278 C 14.403 39.417,13.870 39.091,13.870 38.343 C 13.870 37.402,14.423 37.015,17.949 35.492 C 19.420 34.857,21.909 33.778,23.482 33.094 C 35.667 27.794,44.040 24.293,47.815 22.917 C 50.334 21.999,51.768 21.799,52.524 22.260 " stroke="none" fill="black" fill-rule="evenodd"></path></svg>