<svg width="88" height="88" viewBox="0 0 88 88" fill="none" xmlns="http://www.w3.org/2000/svg" xmlns:xlink="http://www.w3.org/1999/xlink"><path d="M15.809 0.228 C 14.615 0.517,13.112 1.315,11.860 2.324 C 10.344 3.546,3.721 10.290,2.907 11.440 C 0.627 14.662,-0.204 18.398,0.298 23.168 C 1.062 30.426,4.978 40.009,10.818 48.913 C 18.995 61.381,29.992 71.972,42.210 79.147 C 51.034 84.329,58.419 87.123,65.247 87.861 C 69.677 88.341,73.568 87.414,76.544 85.170 C 77.874 84.168,85.435 76.426,86.235 75.247 C 86.578 74.742,87.061 73.792,87.309 73.135 C 87.714 72.062,87.759 71.776,87.756 70.327 C 87.754 69.046,87.688 68.535,87.437 67.848 C 86.632 65.645,86.483 65.471,79.220 58.208 C 72.629 51.617,72.339 51.349,71.246 50.829 C 68.641 49.588,66.318 49.591,63.802 50.838 C 62.446 51.510,62.312 51.625,58.510 55.390 C 56.364 57.515,54.525 59.253,54.423 59.253 C 54.126 59.253,50.873 57.439,49.391 56.446 C 41.417 51.105,33.130 42.235,29.462 35.116 L 28.593 33.429 31.481 30.611 C 34.975 27.202,36.490 25.495,37.172 24.196 C 38.777 21.141,38.346 17.663,36.010 14.823 C 35.075 13.686,23.819 2.466,22.925 1.781 C 22.133 1.172,20.382 0.372,19.389 0.163 C 18.366 -0.052,16.849 -0.025,15.809 0.228 M19.580 4.974 C 20.154 5.246,21.656 6.664,26.491 11.501 C 31.829 16.840,32.733 17.808,33.143 18.618 C 33.770 19.862,33.789 20.860,33.207 22.089 C 32.864 22.816,32.139 23.610,28.663 27.071 C 26.388 29.336,24.413 31.409,24.274 31.678 C 23.999 32.210,23.952 33.629,24.184 34.393 C 24.542 35.571,26.194 38.705,27.548 40.773 C 29.752 44.141,32.482 47.434,36.220 51.238 C 41.235 56.340,46.069 60.048,51.260 62.776 C 53.559 63.983,53.628 64.009,54.633 64.006 C 55.336 64.004,55.822 63.919,56.173 63.736 C 56.456 63.589,58.542 61.630,60.810 59.382 C 65.450 54.784,65.871 54.478,67.540 54.496 C 69.198 54.515,69.268 54.571,76.208 61.512 C 83.303 68.606,83.233 68.518,83.233 70.400 C 83.233 72.155,83.076 72.376,78.470 77.098 C 76.241 79.384,74.157 81.445,73.839 81.678 C 72.000 83.026,69.586 83.688,67.027 83.545 C 61.586 83.241,55.753 81.364,48.620 77.623 C 36.196 71.106,26.256 62.495,17.424 50.600 C 10.918 41.838,6.041 31.445,4.909 23.929 C 4.634 22.108,4.634 19.256,4.908 17.822 C 5.178 16.413,5.954 14.783,6.890 13.658 C 7.287 13.181,9.281 11.124,11.321 9.086 C 15.640 4.772,16.038 4.496,17.820 4.579 C 18.517 4.611,19.082 4.738,19.580 4.974 " stroke="none" fill="black" fill-rule="evenodd"></path></svg>